<?xml version="1.0" encoding="UTF-8" standalone="no"?>
<svg xmlns:dc="http://purl.org/dc/elements/1.1/" xmlns:cc="http://creativecommons.org/ns#" xmlns:rdf="http://www.w3.org/1999/02/22-rdf-syntax-ns#" xmlns:svg="http://www.w3.org/2000/svg" xmlns="http://www.w3.org/2000/svg" xmlns:sodipodi="http://sodipodi.sourceforge.net/DTD/sodipodi-0.dtd" xmlns:inkscape="http://www.inkscape.org/namespaces/inkscape" id="Logo_Kleur" data-name="Logo Kleur" viewBox="0 0 1000 500" version="1.1" sodipodi:docname="LogoOndertitelKleur.svg" inkscape:version="0.92.3 (2405546, 2018-03-11)">
  <metadata id="metadata151">
    <rdf:RDF>
      <cc:Work rdf:about="">
        <dc:format>image/svg+xml</dc:format>
        <dc:type rdf:resource="http://purl.org/dc/dcmitype/StillImage"/>
        <dc:title>StickyLogo</dc:title>
      </cc:Work>
    </rdf:RDF>
  </metadata>
  <sodipodi:namedview pagecolor="#ffffff" bordercolor="#666666" borderopacity="1" objecttolerance="10" gridtolerance="10" guidetolerance="10" inkscape:pageopacity="0" inkscape:pageshadow="2" inkscape:window-width="1920" inkscape:window-height="1044" id="namedview149" showgrid="false" inkscape:zoom="0.48790368" inkscape:cx="359.53543" inkscape:cy="287.12246" inkscape:window-x="0" inkscape:window-y="36" inkscape:window-maximized="1" inkscape:current-layer="Logo_Kleur"/>
  <defs id="defs4">
    <style id="style2">.cls-1{fill:#13120d;}.cls-2{fill:#14120e;}.cls-3{fill:#14130e;}.cls-4{fill:#15130e;}.cls-5{fill:#15130f;}.cls-6{fill:#15140f;}.cls-7{fill:#161410;}.cls-8{fill:#191713;}.cls-9{fill:#191613;}.cls-10{fill:#181612;}.cls-11{fill:#1e1b18;}.cls-12{fill:#1c1916;}.cls-13{fill:#1a1814;}.cls-14{fill:#1d1b18;}.cls-15{fill:#1d1a17;}.cls-16{fill:#C53f78;}.cls-17{fill:#3d3f6f;}.cls-18{fill:#38396f;}.cls-19{fill:#3a3c70;}.cls-20{fill:#3d406f;}.cls-21{fill:#424366;}.cls-22{fill:#3a3e71;}.cls-23{fill:#404169;}.cls-24{fill:#3e406e;}.cls-25{fill:#383a71;}.cls-26{fill:#fff;}</style>
  </defs>
  <title id="title6">StickyLogo</title>
  <path class="cls-1" d="M874.46,173.7c-1.63,2.23-2.42,4.86-3.5,7.34q-34.59,79.14-69.1,158.3a2.7,2.7,0,0,1-3,1.91c-4.91-.11-9.82,0-15,0,2.46-5.68,4.8-11.11,7.17-16.54,5.31-12.17,10.61-24.35,16-36.5a4.74,4.74,0,0,0,0-4.25q-24.7-55.35-49.34-110.74c-.32-.7-.57-1.43-.93-2.34,5.47,0,10.71,0,15.94,0,1.21,0,1.42.76,1.77,1.54l27.4,61.32,14.52,32.5c.84-.29.86-1.11,1.12-1.72q19.86-45.69,39.61-91.43a3.06,3.06,0,0,1,3.48-2.22c4.61.12,9.22,0,13.84,0Z" id="path8"/>
  <path class="cls-1" d="M734.71,295.39c-7.88,0-15.08,0-22.29,0-.93,0-1.39-.67-2-1.19l-59.65-53.53c-.39-.35-.82-.66-1.56-1.25v2.9c0,16.94,0,33.88.06,50.82,0,1.91-.54,2.35-2.36,2.29-4.13-.14-8.27-.1-12.4,0-1.28,0-1.74-.37-1.56-1.61a7.87,7.87,0,0,0,0-1.19q0-83.62-.06-167.26c0-2.36.61-2.9,2.86-2.78,3.72.2,7.48.18,11.21,0,1.92-.09,2.29.54,2.28,2.34q-.07,37.45,0,74.92v20.69c2.34-2,4.38-3.72,6.39-5.46q24.6-21.33,49.16-42.68a5.79,5.79,0,0,1,4.24-1.6c7,.09,14,0,21.53,0-2.25,2-4.14,3.7-6.07,5.36q-30.12,26-60.3,52c-1.68,1.44-1.7,2.14-.05,3.62q34.53,31,69,62.1Z" id="path10"/>
  <path class="cls-1" d="M528,298.31c-25.47,0-44.64-8.33-58.85-26.86-9.82-12.8-13.27-27.47-11.92-43.44,2.39-28.41,23.9-54.26,57.26-59.15,18.2-2.67,35.38.29,51.33,9.58a51.57,51.57,0,0,1,17.24,16.83c.77,1.19.82,1.75-.53,2.52q-5,2.93-9.88,6.17c-1.27.86-1.8.48-2.62-.56-8.2-10.34-18.68-17.07-31.73-19.44-22.83-4.14-45.24,2.6-58.25,23.77-15,24.46-4.89,59.6,24,71.39,21.59,8.8,48.62,4.86,65.76-16.15,1-1.23,1.61-1.49,3-.52,3.1,2.21,6.29,4.31,9.54,6.29,1.5.9,1.43,1.57.49,2.87-9.18,12.6-21.56,20.36-36.51,24.23A72.59,72.59,0,0,1,528,298.31Z" id="path12"/>
  <path class="cls-1" d="M411.13,266a34.06,34.06,0,0,0,5.83,5.49A5.24,5.24,0,0,1,418.9,277a33.42,33.42,0,0,1-2.38,7.2,239,239,0,0,1-12,23.19c-4.08,7.16-10.52,10.71-18.32,11.77-14.17,1.94-27.81-.77-41-5.77-5.58-2.11-9.9-5.79-10.71-12.25-.42-3.39.58-6.61,1.41-9.83a51.25,51.25,0,0,0,1.83-8.34,12.45,12.45,0,0,0-4.49-10.76c-4.56-4.12-10.08-6.52-15.72-8.66a14.49,14.49,0,0,1-4.86-2.89c-1.81-1.67-3.6-3.36-5.45-5-13.3-11.75-13.76-30.79-1.87-44.29,5.23-5.94,11.33-10.91,17.09-16.27,2.09-2,4.08-4,6.06-6.08,8.33-8.66,8.64-21.54,3.52-30.91-2.84-5.19-6.47-9.8-9.89-14.57-3.72-5.17-7.25-10.45-8.5-16.84-2.07-10.5.91-19.7,8-27.45,5-5.53,11.61-5.52,18.33-3.62,5.41,1.53,10.48,4,15.82,5.75,3.94,1.27,7.92,2.39,12.12,1.25,3-.81,5.1-2.06,5.79-5.62a73.09,73.09,0,0,1,5.53-17.61,25.46,25.46,0,0,1,5.14-7.66,11.92,11.92,0,0,1,14.45-2.16,21.92,21.92,0,0,1,6.78,5.17c10.54,12.13,19.24,25.42,24.89,40.52,3.51,9.37,2.64,18.32-3.83,26.22-8.1,9.9-7.6,20.32-2.36,31.15,3.63,7.48,8.93,13.86,13.7,20.59,3.86,5.44,7.5,11,8.62,17.79a17.05,17.05,0,0,1-3.95,14.18,47.16,47.16,0,0,1-8.19,7.26c-1.89,1.45-3.76,2.93-5.62,4.42-7.35,5.87-9.34,13.44-7.11,22.37.93,3.73-.2,5.54-4,6.23C415.62,265.86,413.56,265.83,411.13,266Z" id="path14"/>
  <path class="cls-1" d="M161.67,299.27c-13.79-.39-25.62-5.19-35.11-15.43-1.16-1.24-1.48-2.06-.14-3.45,2.6-2.68,5-5.53,7.42-8.4,1-1.26,1.62-1.35,2.81-.06,5.21,5.62,11.18,10.17,18.87,11.77,9.65,2,18-.44,24.41-8.09a18.62,18.62,0,0,0-2.49-26.4c-6-4.94-12.9-8.34-19.68-12-7.16-3.85-14.23-7.92-19.48-14.28-8.24-10-9.76-21.45-5.33-33.33,4.34-11.64,13.31-18.22,25.56-20.23,13.18-2.16,24.29,2.61,34.46,10.43,2.2,1.69,5.65,3.3,5.9,5.53s-3.31,4-5.14,6.08c-1.43,1.59-2.85,4-4.56,4.26-1.34.22-3.11-2.27-4.7-3.55-5.34-4.29-11.2-7.38-18.14-8.28-9.63-1.26-19.24,5.3-20.84,14.7-1.12,6.57,1.9,11.75,6.53,16s10.16,7.31,15.71,10.24a147.36,147.36,0,0,1,17.85,10.91c20.71,15,17.68,45.23-3.25,58.06A37.77,37.77,0,0,1,161.67,299.27Z" id="path16"/>
  <path class="cls-1" d="M281.61,241.23c0,17.57,0,35.14.05,52.71,0,2-.51,2.54-2.48,2.46-3.89-.17-7.79-.18-11.68,0-2,.09-2.29-.62-2.29-2.39.05-35.14,0-70.28.09-105.42,0-2.31-.41-3.11-2.91-3-5.64.23-11.29,0-16.93.1-1.43,0-2.12-.17-2-1.87.15-3.42.13-6.84,0-10.26-.06-1.54.47-1.81,1.88-1.79,5.88.08,11.76,0,17.64.07,1.8,0,2.37-.36,2.36-2.28-.09-13.92,0-27.83-.09-41.74,0-1.84.41-2.43,2.33-2.36,4,.16,8.11.13,12.16,0,1.62,0,1.95.5,1.94,2-.05,13.91,0,27.82-.09,41.74,0,2.27.68,2.67,2.74,2.63,6.92-.13,13.84,0,20.75-.08,1.56,0,2,.39,2,2-.12,3.34-.13,6.68,0,10,.07,1.6-.45,2-2,1.95-7.08-.08-14.16,0-21.23-.08-1.75,0-2.25.37-2.24,2.19C281.64,205.61,281.61,223.42,281.61,241.23Z" id="path18"/>
  <path class="cls-2" d="M716.78,353.53c-1.69,0-1.79.74-1.69,2,0,.64.25,1.39-.2,2-6.46-5.66-12.92-6-18.09-.89-5.27,5.22-5.82,14.56-1.14,20a12.2,12.2,0,0,0,9.49,4.62c4,.05,7.06-1.79,9.94-4.72v2.73c-.1,4.53-1.89,7.21-5.62,8.5-4.32,1.49-9.44.55-11.68-2.68-1.29-1.89-2.68-2.14-4.87-1.84a11.54,11.54,0,0,0,7,7.51c9.84,3.87,18.34-1.79,18.49-12.38.1-7.66,0-15.26.1-22.91C718.47,354.27,718.47,353.53,716.78,353.53Zm-11.33,24.4c-5.72-.05-9.74-4.52-9.6-10.68s4.53-10.89,10-10.79,9.45,4.87,9.35,11.08C715.14,373.91,711.21,378,705.45,377.93Z" id="path20"/>
  <path class="cls-3" d="M855.11,353.58c-1.44,0-1.74.54-1.64,1.79a3.6,3.6,0,0,1-.2,2.28c-6.26-5.71-12.92-6-18-.94-5.27,5.22-5.82,14.56-1.2,20a12.44,12.44,0,0,0,8.11,4.57c4.47.55,8.1-1.19,11.33-4.77,0,1.24,0,2,0,2.78-.05,4.53-1.79,7.16-5.52,8.5-4.32,1.54-9.44.6-11.73-2.58a4,4,0,0,0-4.77-1.84c1.84,6.21,8.4,9.74,15.61,8.25,6-1.24,9.54-5.57,9.69-12.33.15-7.95,0-15.85.15-23.8C856.9,354.07,856.65,353.53,855.11,353.58Zm-2.49,18.88a9,9,0,0,1-10.53,5.27c-5-1.09-7.86-4.82-7.86-10.88a10.34,10.34,0,0,1,5.42-9.15,9.23,9.23,0,0,1,12.77,4A12.6,12.6,0,0,1,852.62,372.46Z" id="path22"/>
  <path class="cls-4" d="M455.18,427.19c-2.78-2.73-2.78-2.78.05-5.22.95-.79.95-1.34.1-2.09-.64-.59-.94-1.69-2.38-.59-3.28,2.53-3.33,2.43-6.36-.6-.65-.7-1.3-1.39-2-2.09-1-1-2.49-2-2.74-3.18-.29-1.44,1.74-2.09,2.64-3.23,1.54-1.84,3.08-3.73,2.63-6.36a6.6,6.6,0,0,0-6.21-5.32c-3.83-.4-7.26,1.24-8.35,4.08a4.79,4.79,0,0,0-.25,3.23,10.53,10.53,0,0,0,1.89,3.82c2,2.94,2,2.94-.65,5.42a16.15,16.15,0,0,0-4.32,5.37c-2.54,5.52,1,11.18,7.11,11.48,4.62.2,8.35-1.64,11.73-4.42,1.09-.9,1.74-.95,2.63.2,1.94,2.38,4.08,4.32,8.15,2.78C457.47,429.28,456.28,428.28,455.18,427.19Zm-15.45-25.35c2.23,0,3.87,1.29,3.87,2.93-.05,1.44-3.28,5.67-4.37,5.57-.9,0-3.53-4.37-3.48-5.62C435.8,403,437.49,401.79,439.73,401.84Zm-.65,26.89a5.75,5.75,0,0,1-6.16-1.94c-1.44-1.89-1.2-3.83,0-5.76.25-.4.44-.8.74-1.2,1.34-1.59,2.79-3.53,4.58-4,2.08-.55,2.73,2.33,4.22,3.43,1.74,1.29,3.33,2.73,5.27,4.27C444.35,425.9,442.06,427.93,439.08,428.73Z" id="path24"/>
  <path class="cls-5" d="M300.26,345.23c.05-1.3.09-2.14-1.74-2.19-2.09-.05-1.64,1.14-1.64,2.24-.05,4.22,0,8.5,0,13.17-.9-.9-1.35-1.44-1.84-1.94A10.54,10.54,0,0,0,284,353.58c-5.86,1.64-8.89,6-9.64,11.68-.85,6,1.09,11.18,6.31,14.66,5,3.33,10.54,2.39,16.26-2.88,0,.94-.05,1.49,0,2,.05,1-.6,2.33,1.54,2.33,2,0,1.89-.94,1.89-2.33Q300.24,362.17,300.26,345.23Zm-9.35,32.35a8.43,8.43,0,0,1-9.84-1.74,11.29,11.29,0,0,1-3-12c1.49-4.78,6.06-8,10.39-7.31,5.17.79,8.64,5.32,8.59,12.23A9.84,9.84,0,0,1,290.91,377.58Z" id="path26"/>
  <path class="cls-3" d="M583.34,410.21c5.06-6.76,14.3-5.66,16.44,1.05a16.15,16.15,0,0,1,3.89-4.14c5.89-3.73,12.86-.63,13.41,6.28.43,5.45.13,11,.22,16.44,0,1.57-1,1-1.79,1.08-1,.14-1.59-.08-1.57-1.36,0-5.16.1-10.33-.07-15.49-.14-4.26-3.55-6.46-7.62-5.19a7.62,7.62,0,0,0-5.27,5.63,21.2,21.2,0,0,0-.54,5.67c0,3-.06,6,0,9.06,0,1.36-.39,1.71-1.73,1.74s-1.65-.51-1.66-1.77c-.05-4.93.23-9.85-.21-14.77-.25-2.8-1.19-4.9-4.11-5.68s-5.1.42-7,2.4c-2,2.17-2.25,5-2.36,7.78-.14,3.41-.12,6.83-.06,10.25,0,1.24-.18,1.82-1.63,1.79s-1.74-.37-1.73-1.73q.11-10.72,0-21.46c0-1.36.38-1.7,1.72-1.73s1.79.51,1.63,1.78A21.61,21.61,0,0,0,583.34,410.21Z" id="path28"/>
  <path class="cls-3" d="M248.8,410.13c5.67-7.11,14.59-5.06,16.41,1.1a21.68,21.68,0,0,1,3.31-3.64,9.08,9.08,0,0,1,9.18-1.33c3.25,1.3,4.72,4.06,4.87,7.3.25,5.4.1,10.81.2,16.21,0,1.51-.94,1.07-1.73,1.17-1.2.14-1.66-.25-1.65-1.55.06-5.09.09-10.18-.05-15.26-.11-3.83-3.17-6.34-6.67-5.56a7.77,7.77,0,0,0-6.22,5.88,22.05,22.05,0,0,0-.55,5.67c0,3,0,6,0,9.06,0,1.28-.25,1.81-1.67,1.8s-1.7-.37-1.71-1.72c0-4.92.32-9.85-.23-14.77-.41-3.61-1.46-5.11-4.26-5.79-3-.71-5.24.62-7.09,2.78s-2,4.81-2.08,7.42c-.14,3.41-.11,6.83-.06,10.25,0,1.19-.08,1.82-1.59,1.84s-1.78-.59-1.77-1.94c.06-6.91,0-13.83,0-20.74,0-1.14-.38-2.27,1.65-2.29s1.64,1.13,1.65,2.26C248.81,408.75,248.8,409.22,248.8,410.13Z" id="path30"/>
  <path class="cls-3" d="M469.6,367.89c3.08.1,6.16.05,9.29.05h7.36c4.47,0,4.47,0,3.48-4.42-2-8.7-11.33-13.27-18.59-8.8-5.27,3.28-7,8.6-6.56,14.61.4,5.77,4.62,10.94,9.74,12.18a12.63,12.63,0,0,0,14.22-6.16c.59-1,.79-1.49-.45-2.34-1.59-1.19-1.94-.1-2.64.85a9.69,9.69,0,0,1-10,4.37c-4-.94-6.81-4.17-7.55-8.5C467.66,368.24,468.11,367.84,469.6,367.89Zm-1-4.92c1.55-4.12,4.93-6.66,9-6.51,4.43.2,7.61,3,8.85,8.15-5.67,0-11.23-.05-16.8,0C468.21,364.61,468.16,364.21,468.65,363Z" id="path32"/>
  <path class="cls-3" d="M559.86,367.89c3.08.15,6.22.05,9.3.05h7.4c4.28,0,4.38-.05,3.33-4.27-1.29-5.32-4.32-9.2-9.94-10.34a11.29,11.29,0,0,0-12.27,4.87,15.55,15.55,0,0,0-1.2,16.65,11.57,11.57,0,0,0,10.74,7c5.32.1,9.09-2.24,11.68-6.71.45-.8.7-1.29-.25-1.89-1.24-.8-2-1-2.93.5a9.75,9.75,0,0,1-9.94,4.62c-4-.89-6.86-4.08-7.66-8.45C557.82,368.34,558.22,367.84,559.86,367.89Zm-1-4.87a9.29,9.29,0,0,1,9.09-6.56c4.53.3,7.86,3.33,8.65,8.15-5.61,0-11.23-.05-16.85,0C558.27,364.61,558.42,364.06,558.82,363Z" id="path34"/>
  <path class="cls-3" d="M367,367.89c3.08.15,6.16.05,9.29.05h7.36c4.47,0,4.47,0,3.53-4.37-1.94-8.7-11.38-13.32-18.54-8.85-5.32,3.33-7.06,8.55-6.66,14.56.4,5.77,4.57,10.94,9.74,12.23a12.59,12.59,0,0,0,14-5.72c.45-.74,1.84-1.54.1-2.63-1.49-.94-2-.65-2.89.65a9.54,9.54,0,0,1-10,4.42,10,10,0,0,1-7.6-8.45C365.07,368.34,365.37,367.84,367,367.89Zm-1-4.67a9.36,9.36,0,0,1,9.24-6.76,9.19,9.19,0,0,1,8.6,8.15c-5.67,0-11.28-.05-16.9,0C365.72,364.61,365.57,364.26,365.92,363.22Z" id="path36"/>
  <path class="cls-5" d="M822.45,396.52c-1.19,0-1.64.25-1.64,1.59.1,3.93.05,7.86.05,11.93-7.85-5.66-13.77-5.81-19-.64a12.8,12.8,0,0,0-1.24,16.75,12.23,12.23,0,0,0,9.64,5.26c4.13.25,7.46-1.39,10.59-4.37v1.89c0,1.09-.3,2.09,1.54,2.09s1.89-.7,1.89-2.14q-.07-15.36,0-30.72C824.29,396.62,823.65,396.57,822.45,396.52Zm-11.08,32a10.2,10.2,0,0,1-9.94-10.09,10.08,10.08,0,0,1,9.84-9.94,10,10,0,0,1,.1,20Z" id="path38"/>
  <path class="cls-6" d="M313.78,406.07c-1.45-.05-1.79.44-1.69,1.73,0,.65.29,1.4-.2,2-6.86-5.46-13.67-5.61-18.84-.4a12.92,12.92,0,0,0-.7,17.35c5,5.92,11.53,6.12,19.78.5V429c-.09,1.19-.14,2.09,1.65,2,1.59,0,1.73-.7,1.73-2-.05-7.11-.09-14.17,0-21.23C315.51,406.41,315.07,406.07,313.78,406.07Zm-11.29,22.46a10.12,10.12,0,0,1-9.79-10.19,10,10,0,0,1,9.89-9.84,10,10,0,0,1-.1,20Z" id="path40"/>
  <path class="cls-5" d="M404.88,406.07c-1.84-.1-1.64.94-1.59,2V410c-6.66-5.37-13.17-5.81-18.19-1.39a12.78,12.78,0,0,0-2.73,16.55,12.38,12.38,0,0,0,9.89,6.21c4.22.35,7.8-1.24,11-4.37V429c-.1,1.19-.15,2,1.64,2,1.64,0,1.74-.75,1.69-2,0-7-.05-14,.05-21C406.67,406.61,406.42,406.07,404.88,406.07ZM393.6,428.53a10.11,10.11,0,0,1-9.74-10,10,10,0,0,1,9.69-10,10,10,0,0,1,.05,20Z" id="path42"/>
  <path class="cls-6" d="M648.34,406.07c-1,0-1.89-.05-1.69,1.44a24.48,24.48,0,0,1,0,2.73c-5.92-5.52-13-6.06-18.1-1.69a13,13,0,0,0-2.48,17.2,12.52,12.52,0,0,0,7.6,5.37c4.92,1.09,9.15-.3,13-4.13,0,1-.05,1.44,0,1.89,0,1.09-.35,2.14,1.49,2.14s1.84-.8,1.84-2.14c0-7.11,0-14.17,0-21.27C650.08,406.26,649.53,406,648.34,406.07ZM637,428.53a10,10,0,0,1-.1-20,10,10,0,0,1,.1,20Z" id="path44"/>
  <path class="cls-3" d="M836.27,418.94c3.08.15,6.21.05,9.29.05s6.37-.05,9.55.05c1.14,0,1.69-.2,1.59-1.59a12.86,12.86,0,0,0-25.65,0c-.3,6.11,3,11.48,8.05,13.22,6.07,2.09,12.28.2,15.71-4.67,1.19-1.69.89-2.44-1.09-2.94-1.3-.29-1.35.9-1.79,1.45a10,10,0,0,1-9.89,3.87c-4.08-.69-6.52-3.28-7.51-7.3C834.08,419.34,834.58,418.89,836.27,418.94Zm-1.09-4.38a9.1,9.1,0,0,1,9-6.06c4.23.15,7.31,2.73,8.85,7.65-5.81,0-11.43,0-17,0C834.43,416.15,834.83,415.51,835.18,414.56Z" id="path46"/>
  <path class="cls-3" d="M688.5,418.94c3.18.15,6.36.05,9.54.05s6.51-.05,9.79.05c1.15,0,1.49-.35,1.4-1.49a12.88,12.88,0,0,0-11.14-11.88c-6.86-.75-12.33,3-14.11,9.59-1.6,5.77,1.39,12.53,6.51,15a13.7,13.7,0,0,0,16.85-4.17c1.19-1.74.94-2.39-1.05-3-1.29-.39-1.29.85-1.79,1.45-2.68,3.13-6,4.57-10.09,3.82s-6.41-3.48-7.4-7.4C686.71,419.63,686.76,418.89,688.5,418.94Zm-.8-4.33a9.08,9.08,0,0,1,9.2-6.11c4.37.25,7.5,3,8.55,7.65-5.72,0-11.43,0-17.1,0C686.86,416.15,687.4,415.36,687.7,414.61Z" id="path48"/>
  <path class="cls-5" d="M783.84,358.2c1.66-1.73,2.89-3.15,4.63-4,5.93-2.95,12.17.13,13.43,6.63.64,3.31.44,6.65.47,10,0,2.86,0,5.72,0,8.58,0,1.26,0,2-1.7,2s-1.65-.85-1.65-2c0-4.44,0-8.89,0-13.34a23.59,23.59,0,0,0-.38-4c-1-5.23-6.19-7.23-10.47-4a9.89,9.89,0,0,0-4,7.25c-.42,4.68-.31,9.36-.33,14.05,0,1.09.26,2.08-1.57,2.08s-1.77-.93-1.76-2.19q0-11.81,0-23.6c0-1.22,0-2,1.68-2s1.78.74,1.67,2C783.79,356.23,783.84,356.94,783.84,358.2Z" id="path50"/>
  <path class="cls-5" d="M613,358.23c1.65-1.77,2.94-3.24,4.78-4.11,5.92-2.81,12,.23,13.27,6.65a47,47,0,0,1,.48,9c0,3.26-.06,6.53,0,9.78,0,1.29-.26,1.79-1.67,1.78s-1.73-.39-1.7-1.74c.07-4.53,0-9.06,0-13.59a22.64,22.64,0,0,0-.14-2.86c-.39-3-1.27-5.6-4.66-6.44s-5.9.66-7.93,3.09a9.64,9.64,0,0,0-2.16,5.43c-.41,4.77-.33,9.54-.29,14.3,0,1.24-.16,1.85-1.63,1.81-1.31,0-1.76-.33-1.75-1.72q.09-12.17,0-24.34c0-1.37.41-1.69,1.74-1.73s1.77.52,1.63,1.79C612.93,356.13,613,356.94,613,358.23Z" id="path52"/>
  <path class="cls-5" d="M719.41,416.07c3.35-2.9,6.43-5.27,9.13-8,2-2,4.15-2.17,6.94-1.76-4.12,3.62-8,7.1-12,10.47-1.2,1-1.27,1.53,0,2.61,4.26,3.65,8.39,7.43,12.75,11.33-2.81.58-4.89.2-6.87-1.77-3-3-6.33-5.72-10-8.93,0,3.49-.08,6.46,0,9.42,0,1.36-.49,1.57-1.64,1.54s-1.76,0-1.75-1.47q.09-15.74,0-31.48c0-1.46.69-1.44,1.74-1.47s1.67.18,1.65,1.53C719.37,403.86,719.41,409.65,719.41,416.07Z" id="path54"/>
  <path class="cls-5" d="M545.65,405.62a12.9,12.9,0,1,0,.1,25.79,12.45,12.45,0,0,0,12.82-12.92A12.58,12.58,0,0,0,545.65,405.62Zm.05,22.91c-5.52,0-9.7-4.47-9.65-10.19a9.92,9.92,0,0,1,9.6-9.84c5.32-.05,9.64,4.62,9.59,10.29A9.55,9.55,0,0,1,545.7,428.53Z" id="path56"/>
  <path class="cls-5" d="M210.59,405.62a12.65,12.65,0,0,0-12.83,13c0,7.31,5.57,12.77,13,12.77s12.82-5.46,12.77-13A12.58,12.58,0,0,0,210.59,405.62Zm0,22.91c-5.37,0-9.54-4.42-9.54-10a9.92,9.92,0,0,1,9.64-10c5.27,0,9.54,4.57,9.54,10.09A9.59,9.59,0,0,1,210.59,428.53Z" id="path58"/>
  <path class="cls-7" d="M227.27,363.3c0,2.55-.11,5.1,0,7.63.23,4.63,3.22,7.56,7.5,7.5s7.23-3.14,7.33-7.72q.16-7.63,0-15.27c0-1.47.37-1.85,1.85-1.89s1.56.79,1.52,1.9c-.21,5.87.55,11.78-.5,17.61-1.1,6.08-5,8.94-11.34,8.71-5.2-.19-9-4-9.64-9.68s-.22-11.44-.37-17.16c0-1.6.95-1.27,1.87-1.32s1.65,0,1.61,1.34c-.09,2.79,0,5.57,0,8.35Z" id="path60"/>
  <path class="cls-5" d="M491.77,410.38c2.34-2.72,4.7-4.27,7.66-4.69,6-.84,10.29,2.7,10.73,9.21.32,4.9.07,9.85.18,14.77,0,1.67-1,1.15-1.89,1.27-1.14.14-1.49-.28-1.47-1.44.06-4.14,0-8.27,0-12.4,0-1-.12-1.9-.2-2.85-.57-6.16-6.87-6.9-10.54-4.44a9,9,0,0,0-4.19,7.07c-.36,4.12-.29,8.25-.24,12.38,0,1.36-.38,1.71-1.72,1.72s-1.67-.53-1.66-1.8c.05-7.07.06-14.15,0-21.22,0-1.42.29-1.9,1.81-1.91s1.67.68,1.55,1.85C491.72,408.5,491.77,409.12,491.77,410.38Z" id="path62"/>
  <path class="cls-5" d="M157.23,410.24c2.82-3.05,5.79-4.75,9.62-4.62a8.44,8.44,0,0,1,8.41,7c1.06,5.74.32,11.57.5,17.35.05,1.57-1.2.82-1.91,1-.93.18-1.43-.1-1.41-1.23.06-3.58,0-7.15,0-10.73,0-.87,0-1.75,0-2.62-.13-5.13-2.08-7.63-6.08-7.83a8.79,8.79,0,0,0-8.76,7.72,109.94,109.94,0,0,0-.34,13.09c0,1.13-.14,1.75-1.52,1.66-1.15-.08-1.88-.05-1.86-1.6q.12-10.85,0-21.7c0-1.55.7-1.53,1.86-1.6,1.35-.08,1.62.49,1.5,1.64C157.17,408.38,157.23,409.07,157.23,410.24Z" id="path64"/>
  <path class="cls-5" d="M772.86,410.43c2.35-2.83,4.79-4.4,7.85-4.76,6-.7,10.18,2.86,10.56,9.44.28,4.83.06,9.7.16,14.55,0,1.38-.73,1.31-1.64,1.27s-1.88.31-1.71-1.18a11.37,11.37,0,0,0,0-1.43c0-4.06,0-8.12,0-12.17-.1-4.57-1.67-6.81-5.09-7.54s-7.16,1.41-8.94,4.86c-1,1.94-.95,4-1,6-.16,3.25-.13,6.51-.11,9.77,0,1.09-.06,1.81-1.49,1.69-1.11-.1-1.9,0-1.89-1.58q.13-10.86,0-21.71c0-1.55.7-1.54,1.85-1.61,1.36-.08,1.63.49,1.52,1.64C772.81,408.41,772.86,409.11,772.86,410.43Z" id="path66"/>
  <path class="cls-7" d="M743.62,414.69c0,2.38-.11,4.77,0,7.14.24,4.17,3.34,6.82,7.66,6.71a6.94,6.94,0,0,0,7.17-7c.12-4.53.12-9.05,0-13.58,0-1.37.22-1.94,1.79-1.93s1.64.63,1.59,1.84c-.23,5.22.52,10.49-.52,15.66-1.13,5.61-5.14,8.22-11.72,7.85a9.64,9.64,0,0,1-9.3-9.09c-.51-4.91-.16-9.84-.33-14.75,0-1.45.67-1.48,1.74-1.47s1.82,0,1.75,1.46c-.12,2.37,0,4.76,0,7.14Z" id="path68"/>
  <path class="cls-5" d="M362.48,431.4c-7.62,0-13.41-5.37-13.46-12.44,0-7.53,5.71-13.24,13.44-13.33,4-.05,7.7.9,10.58,3.9.48.5,1.72,1.1.75,2-.81.74-1.66,1.65-3.1.21a11,11,0,0,0-15.91.21,9.82,9.82,0,0,0-1.14,11.49,10.67,10.67,0,0,0,11,5,10.17,10.17,0,0,0,6.19-3.23c1.29-1.55,2.1-.31,2.89.33,1.19,1-.2,1.47-.65,2C370.6,430.13,367,431.42,362.48,431.4Z" id="path70"/>
  <path class="cls-5" d="M426.08,373.18c2.33-5.69,4.73-11.2,6.85-16.81.82-2.17,1.78-3.39,4.58-2.51q-5.65,13.74-11.32,27.5h-.62q-5.64-13.71-11.32-27.48c2.39-.79,3.61-.15,4.47,2.21,1.88,5.11,4.09,10.1,6.18,15.13C425.16,371.86,425.21,372.63,426.08,373.18Z" id="path72"/>
  <path class="cls-6" d="M143.58,375.66c1.24.84,2.2,1.93,3.6,2.41a4.78,4.78,0,0,0,5.62-1.83,4.21,4.21,0,0,0-1.12-5.71c-1.57-1.2-3.34-2.13-5-3.25-2.34-1.61-3.89-3.69-3.9-6.69,0-3.44,1.65-6.12,4.5-7.13a8.25,8.25,0,0,1,8.56,2.77c1.29,1.74-1,1.94-1.23,3.1-1.3-.82-2.23-1.93-3.6-2.49a3.54,3.54,0,0,0-4.43,1.13,3.4,3.4,0,0,0-.16,4.39,10.28,10.28,0,0,0,3.85,3.1,18.7,18.7,0,0,1,4.23,3,8.1,8.1,0,0,1-.65,11.52c-3.15,2.75-9.1,2.19-11.6-1.1C141.63,378.07,141.63,378.07,143.58,375.66Z" id="path74"/>
  <path class="cls-8" d="M519.59,419.82c0-3-.05-6,0-9.06,0-1.21-.1-2-1.61-1.79-1.13.18-1.66-.14-1.67-1.48,0-1.52.81-1.51,1.78-1.36,1.44.21,1.5-.59,1.5-1.67a27.58,27.58,0,0,1,.21-4.27,5.38,5.38,0,0,1,8.09-3.59c1,.66.6,1.76.44,2.55s-1,.2-1.52.09c-2.83-.64-3.66-.06-3.77,2.74,0,.31,0,.63,0,.95-.07,3.15-.07,3.14,3,3.19.92,0,2-.46,2.05,1.34S527,409.1,526,409c-2.54-.41-3.11.63-3,3.05.19,5.72,0,11.44.08,17.16,0,1.24-.17,1.82-1.64,1.83s-1.9-.41-1.85-1.88C519.67,426,519.59,422.91,519.59,419.82Z" id="path76"/>
  <path class="cls-9" d="M194,399.6c-.71-.13-1.16-.19-1.59-.3-3-.76-3.81-.16-3.92,2.76a7.84,7.84,0,0,1-.05,1.19c-.47,2.42.52,3.22,2.9,2.92.66-.08,2-.84,2.16.9.15,1.55-.38,2-1.93,1.95-3.12-.1-3.12,0-3.12,3.07,0,5.64,0,11.28,0,16.91,0,1.29-.07,2-1.72,2s-1.77-.65-1.76-2c.06-6,0-11.92,0-17.88,0-1.44,0-2.54-1.93-2.18-1,.2-1.34-.32-1.33-1.33s.11-1.76,1.38-1.53c1.67.31,2-.53,1.88-2a16,16,0,0,1,0-3.09c.45-4.21,3.89-6.15,7.9-4.58C194.78,397.16,193.48,398.48,194,399.6Z" id="path78"/>
  <path class="cls-4" d="M187.76,368.89c0-3.17-.13-6.36,0-9.52.11-2-.38-2.77-2.41-2.43-1.18.19-2.12.13-2-1.63.08-1.29.33-2,1.7-1.69,2.44.49,2.93-.66,2.72-2.83-.19-2,0-4-.07-6-.06-1.29.26-1.78,1.67-1.78s1.74.41,1.69,1.74c-.11,2.38,0,4.77-.06,7.14-.06,1.35.34,1.86,1.7,1.69.78-.09,1.59,0,2.38,0,1.52-.1,1.07,1,1.11,1.79s.2,1.58-1.09,1.59-3.22-.67-3.81.31-.25,2.91-.26,4.4c0,6,0,11.91,0,17.87,0,1.26-.2,1.8-1.64,1.78s-1.75-.39-1.71-1.74C187.82,376,187.76,372.46,187.76,368.89Z" id="path80"/>
  <path class="cls-4" d="M329.46,419.72c0,3.25-.09,6.51,0,9.76.06,1.46-.64,1.45-1.69,1.47s-1.7-.14-1.68-1.51c.08-6.11-.05-12.23.08-18.34,0-1.82-.46-2.33-2.22-2.19-.68.06-2,.82-2.17-.89s.43-2.19,1.95-1.9c2,.36,2.66-.39,2.43-2.39-.19-1.73,0-3.49-.06-5.24-.05-1.26,0-2,1.7-2s1.66.87,1.64,2c0,2,.08,4-.05,6-.09,1.41.44,1.81,1.74,1.65.71-.09,1.43,0,2.14,0,1.05-.09,1.36.32,1.36,1.35s-.2,1.51-1.42,1.56c-3.79.16-3.78.22-3.78,4Z" id="path82"/>
  <path class="cls-4" d="M664,419.71c0,3.26-.09,6.52,0,9.77.06,1.44-.62,1.45-1.69,1.47s-1.7-.14-1.68-1.51c.08-6.11,0-12.23.08-18.34,0-1.82-.46-2.33-2.22-2.19-.68.06-2,.83-2.17-.89s.43-2.18,1.95-1.9c2,.36,2.66-.38,2.43-2.39-.19-1.72,0-3.49-.05-5.23-.06-1.27,0-2,1.69-2s1.66.87,1.64,2c0,2,.08,4,0,6-.08,1.41.44,1.81,1.74,1.65.71-.09,1.43,0,2.14,0,1-.09,1.36.31,1.36,1.35S669,409,667.79,409c-3.8.15-3.79.22-3.79,4Z" id="path84"/>
  <path class="cls-4" d="M521.36,357.15c1.94-2.49,3.8-4.29,6.78-4,.88.09,2.34.15,2.05,1.28-.23.9-.28,2.81-2.55,2.18s-3.51,1-4.54,2.71a14.56,14.56,0,0,0-1.79,7.56c-.07,4.05,0,8.11,0,12.16,0,1.11.43,2.28-1.6,2.33s-1.7-1-1.7-2.21c0-7.79,0-15.58,0-23.37,0-1.12-.43-2.27,1.63-2.27s1.67,1.1,1.67,2.25C521.27,356.09,521.31,356.39,521.36,357.15Z" id="path86"/>
  <path class="cls-5" d="M233.1,409.25c2.18-2.54,4.39-4.1,7.45-3.49.5.1,1.75,0,1.41,1.08-.26.81-.66,1.9-1.76,2-4.63.41-6,1.65-6.8,6.22-.77,4.73-.26,9.5-.35,14.25,0,1.18-.23,1.64-1.55,1.67-1.48,0-1.84-.38-1.82-1.84.08-7.06,0-14.12,0-21.18,0-1.07-.16-2,1.5-1.91,1.41.05,2.11.32,1.82,1.84A8,8,0,0,0,233.1,409.25Z" id="path88"/>
  <path class="cls-5" d="M567.63,409.21c2-2.17,3.87-3.78,6.66-3.57.91.07,2.31.16,2.17,1.1s-.54,2.38-2.53,1.9c-2.64-.64-5.25,2.15-5.92,5.86-.86,4.8-.32,9.65-.43,14.48,0,1.21,0,2.09-1.68,2-1.36-.06-1.69-.44-1.67-1.75.06-7.06,0-14.12,0-21.17,0-1.17-.12-2.06,1.63-2s1.86.68,1.69,2A8.56,8.56,0,0,0,567.63,409.21Z" id="path90"/>
  <path class="cls-10" d="M333.34,367.44c0,4.13-.07,8.26,0,12.38,0,1.4-.55,1.51-1.66,1.5s-1.74,0-1.73-1.47q.09-12.37,0-24.76c0-1.39.59-1.5,1.7-1.51s1.72.07,1.69,1.48C333.27,359.19,333.34,363.32,333.34,367.44Z" id="path92"/>
  <path class="cls-10" d="M750.91,367.46c0,4.05,0,8.1,0,12.14,0,1.31-.29,1.76-1.68,1.75s-1.71-.43-1.7-1.76q.09-12.13,0-24.28c0-1.35.37-1.73,1.72-1.75s1.69.47,1.66,1.76C750.87,359.37,750.91,363.42,750.91,367.46Z" id="path94"/>
  <path class="cls-10" d="M664.06,367.46c0,4.05,0,8.1,0,12.14,0,1.31-.29,1.76-1.68,1.75s-1.72-.43-1.71-1.76q.09-12.13,0-24.28c0-1.35.37-1.73,1.72-1.75s1.69.47,1.67,1.76C664,359.37,664.06,363.41,664.06,367.46Z" id="path96"/>
  <path class="cls-8" d="M146.74,418.52c0,3.65-.08,7.31,0,11,0,1.43-.61,1.48-1.69,1.49s-1.72-.09-1.71-1.5q.1-10.93,0-21.89c0-1.42.63-1.48,1.72-1.49s1.72.08,1.68,1.5C146.66,411.22,146.74,414.87,146.74,418.52Z" id="path98"/>
  <path class="cls-8" d="M342.88,418.74c0,3.57-.07,7.14,0,10.71,0,1.39-.55,1.52-1.66,1.51s-1.75,0-1.74-1.47q.11-11,0-21.9c0-1.38.58-1.53,1.7-1.5s1.75,0,1.7,1.46C342.8,411.28,342.88,415,342.88,418.74Z" id="path100"/>
  <path class="cls-8" d="M478,418.27c0-3.49.06-7,0-10.47,0-1.36.39-1.72,1.73-1.74s1.66.48,1.65,1.76q-.07,10.71,0,21.42c0,1.31-.31,1.75-1.68,1.74s-1.74-.44-1.71-1.76C478,425.57,478,421.92,478,418.27Z" id="path102"/>
  <path class="cls-8" d="M674.09,418.27c0-3.49.06-7,0-10.47,0-1.35.38-1.72,1.73-1.74s1.67.48,1.66,1.76q-.09,10.71,0,21.42c0,1.31-.31,1.75-1.68,1.74s-1.73-.44-1.7-1.76C674.15,425.57,674.09,421.92,674.09,418.27Z" id="path104"/>
  <path class="cls-11" d="M665.22,345.59c-.29,1.48-.88,2.76-2.67,2.76a2.56,2.56,0,0,1-2.73-2.9,2.54,2.54,0,0,1,2.61-2.79C664.34,342.61,665,343.92,665.22,345.59Z" id="path106"/>
  <path class="cls-12" d="M746.58,345.53c.29-1.53.86-2.8,2.63-2.88s2.79,1.19,2.8,2.84-.85,2.92-2.76,2.86S746.9,347,746.58,345.53Z" id="path108"/>
  <path class="cls-13" d="M331.56,342.62a2.66,2.66,0,0,1,2.88,2.93,2.52,2.52,0,0,1-2.6,2.8c-1.91,0-2.73-1.23-2.74-2.9A2.62,2.62,0,0,1,331.56,342.62Z" id="path110"/>
  <path class="cls-14" d="M341.07,401.36a2.5,2.5,0,0,1-2.42-2.8,2.66,2.66,0,0,1,5.31.2C344,400.42,342.93,401.33,341.07,401.36Z" id="path112"/>
  <path class="cls-15" d="M479.52,401.36a2.48,2.48,0,0,1-2.47-2.77,2.41,2.41,0,0,1,2.61-2.49,2.44,2.44,0,0,1,2.71,2.63C482.38,400.38,481.35,401.31,479.52,401.36Z" id="path114"/>
  <path class="cls-15" d="M676,401.37c-1.73-.05-2.79-.94-2.82-2.59a2.46,2.46,0,0,1,2.66-2.69,2.41,2.41,0,0,1,2.65,2.45A2.5,2.5,0,0,1,676,401.37Z" id="path116"/>
  <path class="cls-15" d="M145,401.36a2.64,2.64,0,1,1,.29-5.27,2.42,2.42,0,0,1,2.53,2.58C147.85,400.28,146.91,401.31,145,401.36Z" id="path118"/>
  <path class="cls-16" d="M413.88,159.84c.79,9.83,5.21,18.18,10.68,26.09,4.1,5.94,8.81,11.46,12.38,17.77,2.34,4.12,4.22,8.39,2.8,13.31-1.13,3.89-4.2,6.23-7.14,8.63-4.42,3.61-9.29,6.65-12.9,11.22a24.55,24.55,0,0,0-5.35,13.2,11.79,11.79,0,0,0,0,4.77l.06.71c.33,3.87.33,3.81-3.79,4.08-2.59.17-5.23.63-6.4,3.32s-.08,4.88,1.61,7a20,20,0,0,0,4.4,4.31c2,1.35,2.18,2.89,1.31,5-2.18,5.34-4.86,10.44-7.47,15.56-1.48,2.9-3.36,5.59-4.8,8.5-3.28,6.62-9.16,9-15.89,9.66-11.53,1.1-22.66-1.2-33.59-4.7-.6-.2-1.18-.45-1.76-.71-7-3.17-8.14-5.6-6.27-13.08.92-3.68,2.15-7.3,2.45-11.1.63-7.84-3.1-13.54-9.08-18.05a36.09,36.09,0,0,0-10.78-6c-7.32-2.28-12.17-7.53-16.87-13a17.36,17.36,0,0,1-3.82-10.53,19.79,19.79,0,0,1,0-6.38c.5-5.85,3.61-10.41,7.31-14.62,5.78-6.59,12.81-11.88,19-18,5-4.91,9.2-10.27,10.89-17.27,2.44-10.1.39-19.37-5.21-27.91-3.56-5.44-7.5-10.64-11.13-16-3.19-4.74-5.52-9.83-5.13-15.77A27.57,27.57,0,0,1,325,104.91c2.75-3.69,6.65-4.43,10.89-3.52,6.14,1.32,11.74,4.29,17.7,6.15,4.47,1.39,9,2.74,13.74,1.75,7-1.46,11.3-3.6,12.7-11.35a59.24,59.24,0,0,1,5.83-17.53c1.26-2.36,2.6-4.79,5.54-5.53a3.82,3.82,0,0,1,2.54,0c4,.86,6.47,3.81,8.93,6.67,5.38,6.28,9.71,13.3,13.93,20.38,3.5,5.87,6.63,11.9,8.26,18.6a20.59,20.59,0,0,1,.28,2.09,18.43,18.43,0,0,1,0,6.33c0,2.16-1.06,3.91-2.07,5.69-2.42,4.23-5.86,7.82-7.62,12.48a34.44,34.44,0,0,0-1.83,7.54A14.65,14.65,0,0,0,413.88,159.84Z" id="path120"/>
  <path class="cls-1" d="M359.06,248.19c-1.36-.71-1.32-1.65-1.05-3.13,1.43-7.85,2.64-15.74,3.9-23.63q2.79-17.33,5.56-34.65,2.49-15.57,4.95-31.15,2.28-14.28,4.6-28.56c.68-4.22,1.4-8.42,2-12.65.23-1.69,1-2.29,2.68-2.28,7.47,0,14.94,0,22.41,0,2.28,0,2.73.71,2.37,2.94-1.84,11.48-3.63,23-5.47,34.43-1.66,10.38-3.37,20.75-5,31.14s-3.32,20.92-5,31.38c-1.78,11.25-3.54,22.49-5.35,33.73a2.8,2.8,0,0,1-1.33,2.41,97.33,97.33,0,0,1-11.33.16C368.35,248.35,363.7,248.61,359.06,248.19Z" id="path132"/>
  <path class="cls-2" d="M389.63,275.81c-1.68,9.2-8.74,15.21-19.16,16.3a6.66,6.66,0,0,1-3.29,0c-9.6-1-16.57-6.31-18.83-14.41-.16-.6-.22-1.23-.32-1.85a10,10,0,0,1,0-4.31c1.3-7.12,5.7-11.66,12.18-14.34A22.71,22.71,0,0,1,385.63,263a16.56,16.56,0,0,1,4,9A8,8,0,0,1,389.63,275.81Z" id="path134"/>
  <path class="cls-26" d="M363.42,243.85c2.4-15.39,4.72-30.43,7.09-45.46,2.47-15.66,5-31.31,7.46-47,1.68-10.65,3.37-21.3,4.9-32,.34-2.35,1-3.27,3.61-3.1,4.44.29,8.9.09,13.36.07,1,0,1.66-.13,1.4,1.46-2.78,16.73-5.44,33.48-8.13,50.23q-3.67,22.89-7.33,45.79-2.29,14.21-4.63,28.39c-.13.85,0,1.63-1.41,1.6C374.34,243.8,368.94,243.85,363.42,243.85Z" id="path144"/>
  <path class="cls-26" d="M384.79,273.5c-.23,6.37-3.59,9.82-8.71,12.28-7,3.36-16.14,1.08-20.36-4.27-5.67-7.19-3.35-14.66,4.37-18.64,8.1-4.19,15.41-3.11,20.9,2.38A12.31,12.31,0,0,1,384.79,273.5Z" id="path146"/>
</svg>